<?xml version="1.0" encoding="UTF-8"?>
<svg id="Layer_1" data-name="Layer 1" xmlns="http://www.w3.org/2000/svg" version="1.1" viewBox="0 0 32 32">
  <defs>
    <style>
      .cls-1 {
        fill: #ffe600;
        stroke-width: 0px;
      }
    </style>
  </defs>
  <path class="cls-1" d="M25.3,3.5V.6H6.7v2.9l-1.8,5.7v22.2h10.2l.9-6.3.9,6.3h10.2V9.2l-1.8-5.7ZM11.4,2.4h.6v1.8h-.6v-1.8ZM8.5,2.4h2v.7h-2v-.7ZM8.4,4.1h.7c-.1.9-.5,2.9-2.2,4.7l1.5-4.7ZM15.4,16.8l-1.9,12.8h-6.8V10.2c2.7-2.1,3.3-4.9,3.4-6.1h.4v1.1h2.4v-1.1h2.5v12.7ZM15.4,3.2h-2.5v-.7h2.5v.7ZM25.1,8.7c-1.7-1.7-2.1-3.7-2.2-4.6h.7l1.5,4.6ZM21.7,2.4h1.8v.7h-1.8v-.7ZM20.2,2.4h.6v1.8h-.6v-1.8ZM18.7,2.4h.6v.7h-.6v-.7ZM16.6,2.4h1.2v.7h-1.2v-.7ZM25.3,29.6h-6.8l-1.9-12.7V4.1h2.7v1.1h2.4v-1.1h.2c.1,1.2.7,3.9,3.4,6.1v19.4ZM16.8,15.1l.3.9c.5-.1,1.1-.6,1.4-1.8l-.9-.2c-.1.4-.4,1-.8,1.1ZM17.8,6.5h.9v-1.9h-.9v1.9ZM17.8,12.6s0,.1,0,.2h.9c0-.1,0-.2,0-.3v-1.6h-.9v1.6ZM17.8,9.7h.9v-1.9h-.9v1.9Z"/>
</svg>