<?xml version="1.0" encoding="UTF-8"?>
<svg id="Layer_1" data-name="Layer 1" xmlns="http://www.w3.org/2000/svg" version="1.1" viewBox="0 0 32 32">
  <defs>
    <style>
      .cls-1 {
        fill: #ffe600;
        stroke-width: 0px;
      }
    </style>
  </defs>
  <path class="cls-1" d="M15.5,5.8c-.5,0-1-.1-1.5-.3l-.2.7c.5.2,1.1.3,1.6.3v-.8ZM18.2,6.2l-.2-.7c-.5.2-1,.3-1.5.3v.8c.6,0,1.2-.2,1.7-.3ZM10.4,27.8h1.5v-.8h-1.5v.8ZM26.3,4.3l-1-.3c-2.6-.8-5.6-2.3-5.6-2.3h0s0,0,0,0c-.2,0-1.1.3-3.7.3s-3.4-.2-3.7-.3h0c0,0,0,0,0,0,0,0-2.4,1.1-5.6,2.3l-1,.4L.5,14.1l6,3.1.9-1.5v14.7h17.2v-14.7l.9,1.5,6-3.1-5.2-9.8ZM15.9,3.7c.9,0,1.7,0,2.4,0-.5.4-1.3.6-2.3.6s-1.8-.3-2.3-.6c.6,0,1.4,0,2.2,0ZM7.4,12.6l-.8,1.5-1.4-.7-.4.7,1.4.7-.3.5-3.3-1.7.3-.5,1,.5.4-.7-1-.5,3.4-6.3c.3,1,.7,2.9.7,6.3v.3ZM23.1,12.2v14.8h-.6v.8h.6v1h-14.2v-1h.6v-.8h-.6v-14.1h0s0,0,0,0v-.7c0-3.9-.5-6.1-.9-7.1,2-.8,3.6-1.4,4.4-1.8.6.8,1.7,1.7,3.7,1.7s3.1-.9,3.7-1.7c.9.4,2.6,1.2,4.3,1.8-.4,1.1-.9,3.2-.9,7.1ZM25.8,14.7l1.4-.7-.4-.7-1.4.7-.8-1.5v-.3c0-3.4.4-5.3.7-6.3l3.4,6.3-1,.5.4.7,1-.5.3.5-3.3,1.7-.3-.5ZM19.2,5.8c.5-.3,1-.6,1.4-1l-.5-.5c-.3.3-.7.6-1.2.8l.4.7ZM20.1,27.8h1.5v-.8h-1.5v.8ZM11.9,4.3l-.5.5c.4.4.8.7,1.4,1l.3-.7c-.5-.2-.9-.5-1.2-.8ZM17.7,27.8h1.5v-.8h-1.5v.8ZM15.3,27.8h1.5v-.8h-1.5v.8ZM12.8,27.8h1.5v-.8h-1.5v.8Z"/>
</svg>