<?xml version="1.0" encoding="UTF-8"?>
<svg id="Layer_1" data-name="Layer 1" xmlns="http://www.w3.org/2000/svg" version="1.1" viewBox="0 0 32 32">
  <defs>
    <style>
      .cls-1 {
        fill: #ffe600;
        stroke-width: 0px;
      }
    </style>
  </defs>
  <path class="cls-1" d="M21,9.9h.9v-1.8h-.9v1.8ZM21,12.7s0,.1,0,.2h.9c0-.1,0-.2,0-.2v-1.6h-.9v1.6ZM28.3,3.9V1.1H10.3v2.8l-1.7,5.5v3.8h0c0-.1-6.6,4.3-6.6,4.3l6.7,13.5h9.9l.4-2.9,1.4,2.9h9.9V9.4l-1.7-5.5ZM8.6,26.5l-3.7-7.1v.2c.1,0,1.6-1,1.6-1l-.5-.7-1.4,1-.4-.8,3.8-2.5.4.6-1.4,1,.5.7,1-.7v9.4ZM14.9,2.9h.6v1.8h-.6v-1.8ZM12.1,2.9h1.9v.7h-1.9v-.7ZM12,4.5h.7c-.1.9-.5,2.8-2.1,4.5l1.4-4.5ZM18.7,16.8l-1.8,12.4h-6.6V10.3c2.6-2.1,3.1-4.8,3.3-5.9h.4v1h2.3v-1h2.4v12.3ZM18.7,3.6h-2.4v-.7h2.4v.7ZM28.1,9c-1.6-1.7-2-3.6-2.1-4.5h.7l1.4,4.5ZM24.9,2.9h1.7v.7h-1.7v-.7ZM23.4,2.9h.6v1.8h-.6v-1.8ZM21.9,2.9h.6v.7h-.6v-.7ZM19.9,2.9h1.1v.7h-1.1v-.7ZM28.3,29.1h-6.6l-1.8-12.3V4.5h2.6v1h2.3v-1h.2c.1,1.1.6,3.8,3.2,5.9v18.8ZM21,6.8h.9v-1.8h-.9v1.8ZM20.1,15.1l.3.8c.4-.1,1-.5,1.3-1.7l-.8-.2c-.1.4-.3,1-.8,1.1Z"/>
</svg>